<svg width="139" height="32" viewBox="0 0 139 32" fill="none" xmlns="http://www.w3.org/2000/svg">
<path d="M40.625 11.3097V8.45455H52.919V11.3097H48.5085V23H45.0426V11.3097H40.625ZM56.2269 23.1847C55.5309 23.1847 54.913 23.0687 54.3732 22.8366C53.8382 22.5999 53.4144 22.2448 53.1019 21.7713C52.7942 21.2931 52.6403 20.6941 52.6403 19.9744C52.6403 19.3684 52.7468 18.857 52.9599 18.4403C53.1729 18.0237 53.4665 17.6851 53.8406 17.4247C54.2146 17.1643 54.6455 16.9678 55.1332 16.8352C55.6209 16.6979 56.1417 16.6056 56.6957 16.5582C57.3159 16.5014 57.8155 16.4422 58.1942 16.3807C58.573 16.3144 58.8477 16.2221 59.0181 16.1037C59.1933 15.9806 59.2809 15.8078 59.2809 15.5852V15.5497C59.2809 15.1851 59.1554 14.9034 58.9045 14.7045C58.6535 14.5057 58.315 14.4062 57.8888 14.4062C57.4296 14.4062 57.0603 14.5057 56.7809 14.7045C56.5015 14.9034 56.324 15.178 56.2482 15.5284L53.0451 15.4148C53.1398 14.7519 53.3836 14.16 53.7766 13.6392C54.1744 13.1136 54.7189 12.7017 55.4102 12.4034C56.1062 12.1004 56.9419 11.9489 57.9173 11.9489C58.6133 11.9489 59.2549 12.0317 59.842 12.1974C60.4291 12.3584 60.9405 12.5952 61.3761 12.9077C61.8117 13.2154 62.1478 13.5942 62.3846 14.044C62.6261 14.4938 62.7468 15.0076 62.7468 15.5852V23H59.4798V21.4801H59.3945C59.2004 21.8494 58.9518 22.1619 58.6488 22.4176C58.3505 22.6733 57.9978 22.8651 57.5906 22.9929C57.1881 23.1207 56.7335 23.1847 56.2269 23.1847ZM57.2994 20.9119C57.6734 20.9119 58.0096 20.8362 58.3079 20.6847C58.6109 20.5331 58.8524 20.3248 59.0323 20.0597C59.2122 19.7898 59.3022 19.4773 59.3022 19.1222V18.0852C59.2028 18.1373 59.082 18.1847 58.94 18.2273C58.8027 18.2699 58.6512 18.3101 58.4854 18.348C58.3197 18.3859 58.1493 18.419 57.9741 18.4474C57.7989 18.4759 57.6308 18.5019 57.4698 18.5256C57.1431 18.5777 56.8638 18.6581 56.6317 18.767C56.4045 18.8759 56.2293 19.018 56.1062 19.1932C55.9878 19.3636 55.9286 19.5672 55.9286 19.804C55.9286 20.1638 56.0565 20.4384 56.3121 20.6278C56.5726 20.8172 56.9016 20.9119 57.2994 20.9119ZM74.3945 15.4219L71.2056 15.5071C71.1725 15.2798 71.0825 15.0786 70.9357 14.9034C70.7889 14.7235 70.5972 14.5838 70.3604 14.4844C70.1284 14.3802 69.8585 14.3281 69.5508 14.3281C69.1483 14.3281 68.805 14.4086 68.521 14.5696C68.2416 14.7306 68.1043 14.9484 68.109 15.223C68.1043 15.4361 68.1895 15.6207 68.3647 15.777C68.5446 15.9332 68.8642 16.0587 69.3235 16.1534L71.4258 16.5511C72.5148 16.7595 73.3245 17.1051 73.8548 17.5881C74.3898 18.071 74.6597 18.7102 74.6644 19.5057C74.6597 20.2538 74.4371 20.9048 73.9968 21.4588C73.5612 22.0128 72.9646 22.4437 72.207 22.7514C71.4495 23.0545 70.583 23.206 69.6076 23.206C68.0498 23.206 66.8211 22.8864 65.9215 22.2472C65.0266 21.6032 64.5153 20.7415 64.3874 19.6619L67.8178 19.5767C67.8936 19.9744 68.0901 20.2775 68.4073 20.4858C68.7246 20.6941 69.1294 20.7983 69.6218 20.7983C70.0669 20.7983 70.4291 20.7154 70.7085 20.5497C70.9878 20.384 71.1299 20.1638 71.1346 19.8892C71.1299 19.643 71.021 19.4465 70.8079 19.2997C70.5948 19.1482 70.261 19.0298 69.8065 18.9446L67.9031 18.5824C66.8093 18.3835 65.9949 18.0166 65.4599 17.4815C64.9248 16.9418 64.6597 16.2552 64.6644 15.4219C64.6597 14.6927 64.8538 14.0701 65.2468 13.554C65.6398 13.0331 66.1985 12.6354 66.9229 12.3608C67.6474 12.0862 68.502 11.9489 69.4869 11.9489C70.9641 11.9489 72.1289 12.259 72.9812 12.8793C73.8335 13.4948 74.3046 14.3423 74.3945 15.4219ZM79.5064 20.1378L79.5206 15.9972H80.0036L83.0717 12.0909H87.0064L82.4467 17.6875H81.5305L79.5064 20.1378ZM76.3743 23V8.45455H79.8473V23H76.3743ZM83.1499 23L80.2947 18.4688L82.5817 16.0043L87.1626 23H83.1499ZM90.6072 27.0909C90.1906 27.0909 89.7976 27.0578 89.4283 26.9915C89.0589 26.9299 88.7417 26.8471 88.4766 26.7429L89.2436 24.2216C89.5845 24.3352 89.8923 24.4015 90.1669 24.4205C90.4463 24.4394 90.6854 24.3944 90.8842 24.2855C91.0878 24.1813 91.2441 23.9943 91.353 23.7244L91.4879 23.3977L87.6101 12.0909H91.2464L93.2564 19.875H93.37L95.4084 12.0909H99.0661L94.9538 24.044C94.755 24.6406 94.4732 25.1662 94.1087 25.6207C93.7488 26.08 93.2824 26.4399 92.7095 26.7003C92.1413 26.9607 91.4406 27.0909 90.6072 27.0909ZM102.177 23H98.3984L103.306 8.45455H107.987L112.894 23H109.116L105.7 12.1193H105.586L102.177 23ZM101.673 17.2756H109.57V19.946H101.673V17.2756ZM114.46 27.0909V12.0909H117.898V13.9588H118.004C118.146 13.6274 118.348 13.3078 118.608 13C118.873 12.6922 119.209 12.4413 119.616 12.2472C120.028 12.0483 120.521 11.9489 121.094 11.9489C121.851 11.9489 122.559 12.1477 123.217 12.5455C123.88 12.9432 124.415 13.5563 124.822 14.3849C125.23 15.2135 125.433 16.2694 125.433 17.5526C125.433 18.7884 125.237 19.8229 124.844 20.6562C124.455 21.4896 123.93 22.1146 123.267 22.5312C122.609 22.9479 121.877 23.1562 121.072 23.1562C120.523 23.1562 120.047 23.0663 119.645 22.8864C119.242 22.7064 118.904 22.4697 118.629 22.1761C118.359 21.8826 118.151 21.5677 118.004 21.2315H117.933V27.0909H114.46ZM117.862 17.5455C117.862 18.1326 117.94 18.6439 118.097 19.0795C118.258 19.5152 118.487 19.8537 118.786 20.0952C119.089 20.3319 119.451 20.4503 119.872 20.4503C120.298 20.4503 120.661 20.3319 120.959 20.0952C121.257 19.8537 121.482 19.5152 121.634 19.0795C121.79 18.6439 121.868 18.1326 121.868 17.5455C121.868 16.9583 121.79 16.4493 121.634 16.0185C121.482 15.5876 121.257 15.2538 120.959 15.017C120.665 14.7803 120.303 14.6619 119.872 14.6619C119.446 14.6619 119.084 14.7779 118.786 15.0099C118.487 15.242 118.258 15.5734 118.097 16.0043C117.94 16.4351 117.862 16.9489 117.862 17.5455ZM127.253 27.0909V12.0909H130.691V13.9588H130.797C130.939 13.6274 131.141 13.3078 131.401 13C131.666 12.6922 132.002 12.4413 132.409 12.2472C132.821 12.0483 133.314 11.9489 133.887 11.9489C134.644 11.9489 135.352 12.1477 136.01 12.5455C136.673 12.9432 137.208 13.5563 137.615 14.3849C138.023 15.2135 138.226 16.2694 138.226 17.5526C138.226 18.7884 138.03 19.8229 137.637 20.6562C137.248 21.4896 136.723 22.1146 136.06 22.5312C135.402 22.9479 134.67 23.1562 133.865 23.1562C133.316 23.1562 132.84 23.0663 132.438 22.8864C132.035 22.7064 131.697 22.4697 131.422 22.1761C131.152 21.8826 130.944 21.5677 130.797 21.2315H130.726V27.0909H127.253ZM130.655 17.5455C130.655 18.1326 130.733 18.6439 130.89 19.0795C131.051 19.5152 131.28 19.8537 131.578 20.0952C131.882 20.3319 132.244 20.4503 132.665 20.4503C133.091 20.4503 133.453 20.3319 133.752 20.0952C134.05 19.8537 134.275 19.5152 134.426 19.0795C134.583 18.6439 134.661 18.1326 134.661 17.5455C134.661 16.9583 134.583 16.4493 134.426 16.0185C134.275 15.5876 134.05 15.2538 133.752 15.017C133.458 14.7803 133.096 14.6619 132.665 14.6619C132.239 14.6619 131.877 14.7779 131.578 15.0099C131.28 15.242 131.051 15.5734 130.89 16.0043C130.733 16.4351 130.655 16.9489 130.655 17.5455Z" fill="currentColor"/>
<g clipPath="url(#clip0_1430_1779)">
<path d="M27.6867 10.6426L27.716 10.896L27.7253 11.1546V20.8453C27.7252 21.3901 27.5916 21.9265 27.3361 22.4077C27.0807 22.8888 26.7112 23.3 26.26 23.6053L26.06 23.732L17.6667 28.5773L17.5013 28.6666L17.3333 28.7466V16.76L27.6867 10.6426ZM4.31332 10.6426L14.6667 16.7613V28.7453C14.5525 28.6955 14.4412 28.6395 14.3333 28.5773L5.94132 23.732C5.43461 23.4394 5.01382 23.0186 4.72126 22.5119C4.4287 22.0052 4.27467 21.4304 4.27466 20.8453V11.1546C4.27466 10.9813 4.28799 10.8106 4.31466 10.6426H4.31332ZM17.6667 3.42265L26.0587 8.26798C26.1253 8.30798 26.192 8.34798 26.256 8.39065L16 14.4533L5.74399 8.38931C5.80829 8.3461 5.87411 8.30518 5.94132 8.26665L14.3333 3.42131C14.8401 3.12875 15.4149 2.97473 16 2.97473C16.5851 2.97473 17.1599 3.13009 17.6667 3.42265Z" fill="currentColor"/>
</g>
<defs>
<clipPath id="clip0_1430_1779">
<rect width="32" height="32" fill="currentColor"/>
</clipPath>
</defs>
</svg>
